<mxfile host="app.diagrams.net" agent="Mozilla/5.0 (Macintosh; Intel Mac OS X 10_15_7) AppleWebKit/537.36 (KHTML, like Gecko) Chrome/127.0.0.0 Safari/537.36" version="24.7.5">
  <diagram name="第 1 页" id="Be4BuI-G1YE2yV5uqb6c">
    <mxGraphModel dx="3035" dy="1624" grid="0" gridSize="10" guides="1" tooltips="1" connect="1" arrows="1" fold="1" page="0" pageScale="1" pageWidth="827" pageHeight="1169" math="0" shadow="0">
      <root>
        <mxCell id="0" />
        <mxCell id="1" parent="0" />
        <mxCell id="PkCYD1a_8axo3H1CK_oy-20" style="edgeStyle=none;curved=1;rounded=0;sketch=1;hachureGap=4;jiggle=2;curveFitting=1;orthogonalLoop=1;jettySize=auto;html=1;entryX=0;entryY=0.5;entryDx=0;entryDy=0;fontFamily=Architects Daughter;fontSource=https%3A%2F%2Ffonts.googleapis.com%2Fcss%3Ffamily%3DArchitects%2BDaughter;fontSize=16;startSize=14;endArrow=open;endSize=14;sourcePerimeterSpacing=8;targetPerimeterSpacing=8;" edge="1" parent="1" source="PkCYD1a_8axo3H1CK_oy-4" target="PkCYD1a_8axo3H1CK_oy-17">
          <mxGeometry relative="1" as="geometry" />
        </mxCell>
        <mxCell id="PkCYD1a_8axo3H1CK_oy-4" value="Mobile client" style="sketch=0;outlineConnect=0;fontColor=#232F3E;gradientColor=none;strokeColor=#232F3E;fillColor=#ffffff;dashed=0;verticalLabelPosition=bottom;verticalAlign=top;align=center;html=1;fontSize=12;fontStyle=0;aspect=fixed;shape=mxgraph.aws4.resourceIcon;resIcon=mxgraph.aws4.mobile_client;hachureGap=4;jiggle=2;curveFitting=1;fontFamily=Architects Daughter;fontSource=https%3A%2F%2Ffonts.googleapis.com%2Fcss%3Ffamily%3DArchitects%2BDaughter;" vertex="1" parent="1">
          <mxGeometry x="-284" y="-260" width="80" height="80" as="geometry" />
        </mxCell>
        <mxCell id="PkCYD1a_8axo3H1CK_oy-12" style="edgeStyle=none;curved=1;rounded=0;sketch=1;hachureGap=4;jiggle=2;curveFitting=1;orthogonalLoop=1;jettySize=auto;html=1;fontFamily=Architects Daughter;fontSource=https%3A%2F%2Ffonts.googleapis.com%2Fcss%3Ffamily%3DArchitects%2BDaughter;fontSize=16;startSize=14;endArrow=open;endSize=14;sourcePerimeterSpacing=8;targetPerimeterSpacing=8;" edge="1" parent="1" source="PkCYD1a_8axo3H1CK_oy-8" target="PkCYD1a_8axo3H1CK_oy-10">
          <mxGeometry relative="1" as="geometry">
            <mxPoint x="-592" y="-216" as="targetPoint" />
          </mxGeometry>
        </mxCell>
        <mxCell id="PkCYD1a_8axo3H1CK_oy-15" style="edgeStyle=none;curved=1;rounded=0;sketch=1;hachureGap=4;jiggle=2;curveFitting=1;orthogonalLoop=1;jettySize=auto;html=1;fontFamily=Architects Daughter;fontSource=https%3A%2F%2Ffonts.googleapis.com%2Fcss%3Ffamily%3DArchitects%2BDaughter;fontSize=16;startSize=14;endArrow=open;endSize=14;sourcePerimeterSpacing=8;targetPerimeterSpacing=8;" edge="1" parent="1" source="PkCYD1a_8axo3H1CK_oy-10" target="PkCYD1a_8axo3H1CK_oy-4">
          <mxGeometry relative="1" as="geometry" />
        </mxCell>
        <mxCell id="PkCYD1a_8axo3H1CK_oy-10" value="" style="shape=image;html=1;verticalAlign=top;verticalLabelPosition=bottom;labelBackgroundColor=#ffffff;imageAspect=0;aspect=fixed;image=https://cdn1.iconfinder.com/data/icons/unicons-line-vol-5/24/qrcode-scan-128.png;sketch=1;hachureGap=4;jiggle=2;curveFitting=1;fontFamily=Architects Daughter;fontSource=https%3A%2F%2Ffonts.googleapis.com%2Fcss%3Ffamily%3DArchitects%2BDaughter;" vertex="1" parent="1">
          <mxGeometry x="-551" y="-263" width="86" height="86" as="geometry" />
        </mxCell>
        <mxCell id="PkCYD1a_8axo3H1CK_oy-13" value="生成付款qrcode" style="text;strokeColor=none;fillColor=none;html=1;align=center;verticalAlign=middle;whiteSpace=wrap;rounded=0;fontSize=20;fontFamily=Architects Daughter;fontSource=https%3A%2F%2Ffonts.googleapis.com%2Fcss%3Ffamily%3DArchitects%2BDaughter;" vertex="1" parent="1">
          <mxGeometry x="-811" y="-219" width="223" height="30" as="geometry" />
        </mxCell>
        <mxCell id="PkCYD1a_8axo3H1CK_oy-26" style="edgeStyle=none;curved=1;rounded=0;sketch=1;hachureGap=4;jiggle=2;curveFitting=1;orthogonalLoop=1;jettySize=auto;html=1;entryX=0;entryY=0.5;entryDx=0;entryDy=0;fontFamily=Architects Daughter;fontSource=https%3A%2F%2Ffonts.googleapis.com%2Fcss%3Ffamily%3DArchitects%2BDaughter;fontSize=16;startSize=14;endArrow=open;endSize=14;sourcePerimeterSpacing=8;targetPerimeterSpacing=8;" edge="1" parent="1" source="PkCYD1a_8axo3H1CK_oy-17" target="PkCYD1a_8axo3H1CK_oy-24">
          <mxGeometry relative="1" as="geometry" />
        </mxCell>
        <mxCell id="PkCYD1a_8axo3H1CK_oy-18" value="掃描qrcode" style="text;strokeColor=none;fillColor=none;html=1;align=center;verticalAlign=middle;whiteSpace=wrap;rounded=0;fontSize=20;fontFamily=Architects Daughter;fontSource=https%3A%2F%2Ffonts.googleapis.com%2Fcss%3Ffamily%3DArchitects%2BDaughter;" vertex="1" parent="1">
          <mxGeometry x="-457" y="-214" width="165" height="30" as="geometry" />
        </mxCell>
        <mxCell id="PkCYD1a_8axo3H1CK_oy-21" value="user透過錢包同意交易" style="text;strokeColor=none;fillColor=none;html=1;align=center;verticalAlign=middle;whiteSpace=wrap;rounded=0;fontSize=20;fontFamily=Architects Daughter;fontSource=https%3A%2F%2Ffonts.googleapis.com%2Fcss%3Ffamily%3DArchitects%2BDaughter;" vertex="1" parent="1">
          <mxGeometry x="-182" y="-219" width="221" height="30" as="geometry" />
        </mxCell>
        <mxCell id="PkCYD1a_8axo3H1CK_oy-24" value="" style="shape=image;verticalLabelPosition=bottom;labelBackgroundColor=default;verticalAlign=top;aspect=fixed;imageAspect=0;image=data:image/svg+xml,PHN2ZyB4bWxucz0iaHR0cDovL3d3dy53My5vcmcvMjAwMC9zdmciIGZpbGw9Im5vbmUiIHZpZXdCb3g9IjAgMCA2NDMgNjQzIiBoZWlnaHQ9IjY0MyIgd2lkdGg9IjY0MyI+JiN4YTs8cGF0aCBmaWxsPSJ1cmwoI3BhaW50MF9saW5lYXIpIiBkPSJNMTg3LjI4MSAzMzAuNzQzQzE4OS43MTQgMzI4LjMxMSAxOTMuMDE0IDMyNi45NDYgMTk2LjQ1NCAzMjYuOTQ2SDUxMy44NTFDNTE5LjYzMyAzMjYuOTQ2IDUyMi41MjcgMzMzLjkzNyA1MTguNDM3IDMzOC4wMjRMNDU1LjcyIDQwMC42OTFDNDUzLjI4NyA0MDMuMTIzIDQ0OS45ODcgNDA0LjQ4OSA0NDYuNTQ3IDQwNC40ODlIMTI5LjE1QzEyMy4zNjggNDA0LjQ4OSAxMjAuNDc0IDM5Ny40OTcgMTI0LjU2NCAzOTMuNDFMMTg3LjI4MSAzMzAuNzQzWiIvPiYjeGE7PHBhdGggZmlsbD0idXJsKCNwYWludDFfbGluZWFyKSIgZD0iTTE4Ny4yODEgOTYuNjIyNUMxODkuNzE0IDk0LjE5MSAxOTMuMDE0IDkyLjgyNTIgMTk2LjQ1NCA5Mi44MjUySDUxMy44NTFDNTE5LjYzMyA5Mi44MjUyIDUyMi41MjcgOTkuODE2OSA1MTguNDM3IDEwMy45MDRMNDU1LjcyIDE2Ni41NzFDNDUzLjI4NyAxNjkuMDAyIDQ0OS45ODcgMTcwLjM2OCA0NDYuNTQ3IDE3MC4zNjhIMTI5LjE1QzEyMy4zNjggMTcwLjM2OCAxMjAuNDc0IDE2My4zNzcgMTI0LjU2NCAxNTkuMjlMMTg3LjI4MSA5Ni42MjI1WiIvPiYjeGE7PHBhdGggZmlsbD0idXJsKCNwYWludDJfbGluZWFyKSIgZD0iTTQ1NS43MiAyMTIuOTM3QzQ1My4yODcgMjEwLjUwNiA0NDkuOTg3IDIwOS4xNCA0NDYuNTQ3IDIwOS4xNEgxMjkuMTVDMTIzLjM2OCAyMDkuMTQgMTIwLjQ3NCAyMTYuMTMyIDEyNC41NjQgMjIwLjIxOEwxODcuMjgxIDI4Mi44ODZDMTg5LjcxNCAyODUuMzE3IDE5My4wMTQgMjg2LjY4MyAxOTYuNDU0IDI4Ni42ODNINTEzLjg1MUM1MTkuNjMzIDI4Ni42ODMgNTIyLjUyNyAyNzkuNjkxIDUxOC40MzcgMjc1LjYwNEw0NTUuNzIgMjEyLjkzN1oiLz4mI3hhOzxwYXRoIGZpbGw9ImJsYWNrIiBkPSJNMTM4LjgzMiA1MjguNjMxSDE2MC41NTZDMTYzLjYwOCA1MjguNjMxIDE2Ni4wODEgNTMxLjEzOSAxNjYuMDgxIDUzNC4yMzNDMTY2LjA4MSA1MzcuMzI2IDE2My42MDggNTM5LjgzNCAxNjAuNTU2IDUzOS44MzRIMTM0LjM1M0MxMzMuOTQ0IDUzOS44MzQgMTMzLjU0OSA1MzkuOTgyIDEzMy4yMzggNTQwLjI1MkwxMjUuMzI2IDU0Ny4xMTRDMTI0LjExNSA1NDguMTY0IDEyNC44NDggNTUwLjE3NSAxMjYuNDQyIDU1MC4xNzVIMTU5LjI0NEMxNTkuMjU3IDU1MC4xNzUgMTU5LjI2OCA1NTAuMTY0IDE1OS4yNjggNTUwLjE1MUMxNTkuMjY4IDU1MC4xMzYgMTU5LjI4IDU1MC4xMjUgMTU5LjI5NSA1NTAuMTI2QzE1OS43MDcgNTUwLjE1OSAxNjAuMTI1IDU1MC4xNzUgMTYwLjU0NiA1NTAuMTc1QzE2OS4yNDcgNTUwLjE3NSAxNzYuMzAxIDU0My4wMzggMTc2LjMwMSA1MzQuMjMzQzE3Ni4zMDEgNTI1Ljg3MiAxNjkuOTQgNTE5LjAxNCAxNjEuODQ4IDUxOC4zNDRDMTYxLjgzNCA1MTguMzQzIDE2MS44MjMgNTE4LjMzMSAxNjEuODIzIDUxOC4zMTdDMTYxLjgyMyA1MTguMzAyIDE2MS44MTEgNTE4LjI5IDE2MS43OTcgNTE4LjI5SDEzOC4zOTNDMTM1LjM0MiA1MTguMjkgMTMyLjg2OCA1MTUuNzgzIDEzMi44NjggNTEyLjY4OUMxMzIuODY4IDUwOS41OTUgMTM1LjM0MiA1MDcuMDg4IDEzOC4zOTMgNTA3LjA4OEgxNjQuNTZDMTY0Ljk5MSA1MDcuMDg4IDE2NS40MDYgNTA2LjkyMyAxNjUuNzIyIDUwNi42MjdMMTczLjA2OSA0OTkuNzY1QzE3NC4yMTggNDk4LjY5MiAxNzMuNDY5IDQ5Ni43NDcgMTcxLjkwNiA0OTYuNzQ3SDEzOC44MzJDMTM4LjgzMSA0OTYuNzQ3IDEzOC44MjkgNDk2Ljc0OCAxMzguODI5IDQ5Ni43NDlDMTM4LjgyOSA0OTYuNzUxIDEzOC44MjggNDk2Ljc1MiAxMzguODI2IDQ5Ni43NTJDMTM4LjY4NiA0OTYuNzQ4IDEzOC41NDUgNDk2Ljc0NyAxMzguNDAzIDQ5Ni43NDdDMTI5LjcwMiA0OTYuNzQ3IDEyMi42NDggNTAzLjg4NCAxMjIuNjQ4IDUxMi42ODlDMTIyLjY0OCA1MjEuNDk0IDEyOS43MDIgNTI4LjYzMSAxMzguNDAzIDUyOC42MzFDMTM4LjU0NSA1MjguNjMxIDEzOC42ODYgNTI4LjYzIDEzOC44MjYgNTI4LjYyNkMxMzguODI4IDUyOC42MjYgMTM4LjgyOSA1MjguNjI3IDEzOC44MjkgNTI4LjYyOUMxMzguODI5IDUyOC42MyAxMzguODMxIDUyOC42MzEgMTM4LjgzMiA1MjguNjMxWiIvPiYjeGE7PHBhdGggZmlsbD0iYmxhY2siIGQ9Ik0yNjUuMzYxIDQ5Ni43NDdDMjY0LjQxMSA0OTYuNzQ3IDI2My42NDEgNDk3LjUyNSAyNjMuNjQxIDQ5OC40ODZWNTQ4LjQzNkMyNjMuNjQxIDU0OS4zOTcgMjY0LjQxMSA1NTAuMTc1IDI2NS4zNjEgNTUwLjE3NUgzMDUuMTRDMzA1LjYxNSA1NTAuMTc1IDMwNi4wNjkgNTQ5Ljk3NiAzMDYuMzk0IDU0OS42MjZMMzExLjM3MyA1NDQuMjUzQzMxMi40MDMgNTQzLjE0MiAzMTEuNjI0IDU0MS4zMjQgMzEwLjExOSA1NDEuMzI0SDI3NS4zODdDMjc0LjQzNyA1NDEuMzI0IDI3My42NjcgNTQwLjU0NSAyNzMuNjY3IDUzOS41ODRWNDk4LjQ4NkMyNzMuNjY3IDQ5Ny41MjUgMjcyLjg5NyA0OTYuNzQ3IDI3MS45NDggNDk2Ljc0N0gyNjUuMzYxWiIvPiYjeGE7PHBhdGggZmlsbD0iYmxhY2siIGQ9Ik0yMDEuNjQ4IDQ5Ni43NDdDMjAxLjY0NSA0OTYuNzQ3IDIwMS42NDMgNDk2Ljc0OSAyMDEuNjQzIDQ5Ni43NTFDMjAxLjY0MyA0OTYuNzU0IDIwMS42NDEgNDk2Ljc1NiAyMDEuNjM5IDQ5Ni43NTZDMTk2LjU1NCA0OTYuOTc4IDE5Mi40NzIgNTAxLjA5NCAxOTIuMjUyIDUwNi4yMjFDMTkyLjI1MiA1MDYuMjI0IDE5Mi4yNSA1MDYuMjI2IDE5Mi4yNDcgNTA2LjIyNkMxOTIuMjQ2IDUwNi4yMjYgMTkyLjI0NSA1MDYuMjI3IDE5Mi4yNDQgNTA2LjIyN0MxOTIuMjQzIDUwNi4yMjggMTkyLjI0MyA1MDYuMjI5IDE5Mi4yNDMgNTA2LjIzMVY1MzkuODNDMTkyLjI0MyA1MzkuODMyIDE5Mi4yNDUgNTM5LjgzNCAxOTIuMjQ3IDUzOS44MzRDMTkyLjI1IDUzOS44MzQgMTkyLjI1MiA1MzkuODM2IDE5Mi4yNTIgNTM5LjgzOUMxOTIuMjQ2IDUzOS45OCAxOTIuMjQzIDU0MC4xMjIgMTkyLjI0MyA1NDAuMjY1QzE5Mi4yNDMgNTQ1LjU5MyAxOTYuNDExIDU0OS45MzggMjAxLjYzOSA1NTAuMTY2QzIwMS42NDEgNTUwLjE2NiAyMDEuNjQzIDU1MC4xNjggMjAxLjY0MyA1NTAuMTcxTDIwMS42NDQgNTUwLjE3M0wyMDEuNjQ1IDU1MC4xNzRDMjAxLjY0NiA1NTAuMTc1IDIwMS42NDcgNTUwLjE3NSAyMDEuNjQ4IDU1MC4xNzVIMjM3Ljc0M0MyMzcuNzQ1IDU1MC4xNzUgMjM3Ljc0OCA1NTAuMTczIDIzNy43NDggNTUwLjE3MUwyMzcuNzQ4IDU1MC4xNjhMMjM3Ljc1IDU1MC4xNjZMMjM3Ljc1MiA1NTAuMTY2QzI0Mi45NzkgNTQ5LjkzOCAyNDcuMTQ4IDU0NS41OTMgMjQ3LjE0OCA1NDAuMjY1QzI0Ny4xNDggNTQwLjEyMiAyNDcuMTQ1IDUzOS45OCAyNDcuMTM5IDUzOS44MzlDMjQ3LjEzOSA1MzkuODM2IDI0Ny4xNDEgNTM5LjgzNCAyNDcuMTQ0IDUzOS44MzRDMjQ3LjE0NiA1MzkuODM0IDI0Ny4xNDggNTM5LjgzMiAyNDcuMTQ4IDUzOS44M1Y1MDYuMjMxQzI0Ny4xNDggNTA2LjIyOCAyNDcuMTQ2IDUwNi4yMjYgMjQ3LjE0MyA1MDYuMjI2QzI0Ny4xNDEgNTA2LjIyNiAyNDcuMTM5IDUwNi4yMjQgMjQ3LjEzOSA1MDYuMjIxQzI0Ni45MTkgNTAxLjA5NCAyNDIuODM2IDQ5Ni45NzggMjM3Ljc1MiA0OTYuNzU2QzIzNy43NSA0OTYuNzU2IDIzNy43NDggNDk2Ljc1NCAyMzcuNzQ4IDQ5Ni43NTFDMjM3Ljc0OCA0OTYuNzQ5IDIzNy43NDUgNDk2Ljc0NyAyMzcuNzQzIDQ5Ni43NDdIMjAxLjY0OFpNMjA4LjM3NiA1MDYuMjI2TDIwOC4zNzQgNTA2LjIyN0wyMDguMzczIDUwNi4yMjlDMjA4LjM3MyA1MDYuMjMgMjA4LjM3MiA1MDYuMjMyIDIwOC4zNyA1MDYuMjMyQzIwNS4xOTMgNTA2LjM3MSAyMDIuNjQxIDUwOC45NjEgMjAyLjUwNCA1MTIuMTg2QzIwMi41MDQgNTEyLjE4NyAyMDIuNTAyIDUxMi4xODkgMjAyLjUwMSA1MTIuMTg5QzIwMi40OTkgNTEyLjE4OSAyMDIuNDk4IDUxMi4xOSAyMDIuNDk4IDUxMi4xOTJWNTMzLjMyN0MyMDIuNDk4IDUzMy4zMjggMjAyLjQ5OSA1MzMuMzI5IDIwMi41MDEgNTMzLjMyOUMyMDIuNTAyIDUzMy4zMjkgMjAyLjUwMyA1MzMuMzMxIDIwMi41MDMgNTMzLjMzMkMyMDIuNSA1MzMuNDIxIDIwMi40OTggNTMzLjUxMSAyMDIuNDk4IDUzMy42QzIwMi40OTggNTM2Ljk1MiAyMDUuMTAzIDUzOS42ODUgMjA4LjM3IDUzOS44MjhDMjA4LjM3MiA1MzkuODI4IDIwOC4zNzMgNTM5LjgzIDIwOC4zNzMgNTM5LjgzMUwyMDguMzc0IDUzOS44MzNMMjA4LjM3NSA1MzkuODM0TDIwOC4zNzYgNTM5LjgzNEgyMzEuMDE1TDIzMS4wMTYgNTM5LjgzNEwyMzEuMDE3IDUzOS44MzNMMjMxLjAxOCA1MzkuODMxQzIzMS4wMTggNTM5LjgzIDIzMS4wMTkgNTM5LjgyOCAyMzEuMDIgNTM5LjgyOEMyMzQuMjg4IDUzOS42ODUgMjM2Ljg5MyA1MzYuOTUyIDIzNi44OTMgNTMzLjZDMjM2Ljg5MyA1MzMuNTExIDIzNi44OTEgNTMzLjQyMSAyMzYuODg3IDUzMy4zMzJMMjM2Ljg4NyA1MzMuMzMyTDIzNi44ODggNTMzLjMzMUwyMzYuODkgNTMzLjMyOUMyMzYuODkyIDUzMy4zMjkgMjM2Ljg5MyA1MzMuMzI4IDIzNi44OTMgNTMzLjMyN1Y1MTIuMTkyQzIzNi44OTMgNTEyLjE5IDIzNi44OTIgNTEyLjE4OSAyMzYuODkgNTEyLjE4OUMyMzYuODg5IDUxMi4xODkgMjM2Ljg4NyA1MTIuMTg3IDIzNi44ODcgNTEyLjE4NkMyMzYuNzUgNTA4Ljk2MSAyMzQuMTk4IDUwNi4zNzEgMjMxLjAyIDUwNi4yMzJDMjMxLjAxOSA1MDYuMjMyIDIzMS4wMTggNTA2LjIzIDIzMS4wMTggNTA2LjIyOUwyMzEuMDE3IDUwNi4yMjdMMjMxLjAxNiA1MDYuMjI2TDIzMS4wMTUgNTA2LjIyNkgyMDguMzc2WiIgY2xpcC1ydWxlPSJldmVub2RkIiBmaWxsLXJ1bGU9ImV2ZW5vZGQiLz4mI3hhOzxwYXRoIGZpbGw9ImJsYWNrIiBkPSJNMzY5LjIxNyA1NDguNDM2QzM2OS4yMTcgNTQ5LjM5NyAzNjkuOTgxIDU1MC4xNzUgMzcwLjkyMyA1NTAuMTc1SDM3Ny42NjlDMzc4LjYxMSA1NTAuMTc1IDM3OS4zNzUgNTQ5LjM5NyAzNzkuMzc1IDU0OC40MzZWNTA3LjA5MkMzNzkuMzc1IDUwNy4wOSAzNzkuMzczIDUwNy4wODggMzc5LjM3IDUwNy4wODhMMzc5LjM2OCA1MDcuMDg3TDM3OS4zNjcgNTA3LjA4NkMzNzkuMzY2IDUwNy4wODYgMzc5LjM2NiA1MDcuMDg0IDM3OS4zNjYgNTA3LjA4M0MzNzkuMzcyIDUwNi45NDIgMzc5LjM3NSA1MDYuOCAzNzkuMzc1IDUwNi42NTdDMzc5LjM3NSA1MDEuMzI5IDM3NS4yNDYgNDk2Ljk4NCAzNzAuMDY4IDQ5Ni43NTZDMzcwLjA2NiA0OTYuNzU2IDM3MC4wNjQgNDk2Ljc1NCAzNzAuMDY0IDQ5Ni43NTFDMzcwLjA2NCA0OTYuNzQ5IDM3MC4wNjIgNDk2Ljc0NyAzNzAuMDU5IDQ5Ni43NDdIMzM1LjQwN0MzMzUuNDA0IDQ5Ni43NDcgMzM1LjQwMiA0OTYuNzQ5IDMzNS40MDIgNDk2Ljc1MUMzMzUuNDAyIDQ5Ni43NTQgMzM1LjQgNDk2Ljc1NiAzMzUuMzk4IDQ5Ni43NTZDMzM1LjI1OSA0OTYuNzUgMzM1LjExOSA0OTYuNzQ3IDMzNC45NzkgNDk2Ljc0N0MzMjkuNjAzIDQ5Ni43NDcgMzI1LjI0NSA1MDEuMTg0IDMyNS4yNDUgNTA2LjY1N0MzMjUuMjQ1IDUwNi44IDMyNS4yNDggNTA2Ljk0MiAzMjUuMjU0IDUwNy4wODNDMzI1LjI1NCA1MDcuMDg1IDMyNS4yNTIgNTA3LjA4OCAzMjUuMjQ5IDUwNy4wODhDMzI1LjI0NyA1MDcuMDg4IDMyNS4yNDUgNTA3LjA5IDMyNS4yNDUgNTA3LjA5MlY1NDguNDM2QzMyNS4yNDUgNTQ5LjM5NyAzMjYuMDA4IDU1MC4xNzUgMzI2Ljk1IDU1MC4xNzVIMzMzLjY5N0MzMzQuNjM5IDU1MC4xNzUgMzM1LjQwMiA1NDkuMzk3IDMzNS40MDIgNTQ4LjQzNlY1MzEuMjMzQzMzNS40MDIgNTMwLjI3MiAzMzYuMTY2IDUyOS40OTMgMzM3LjEwOCA1MjkuNDkzSDM2Ny41MTJDMzY4LjQ1NCA1MjkuNDkzIDM2OS4yMTcgNTMwLjI3MiAzNjkuMjE3IDUzMS4yMzNWNTQ4LjQzNlpNMzM1LjQwMiA1MTkuOTk4VjUxMS4zOTZDMzM1LjQwMiA1MDguMDY1IDMzOC4wNTUgNTA1LjM2NCAzNDEuMzI4IDUwNS4zNjRIMzYzLjI5MkMzNjYuNTY1IDUwNS4zNjQgMzY5LjIxNyA1MDguMDY1IDM2OS4yMTcgNTExLjM5NlY1MTkuOTk4QzM2OS4yMTcgNTIwLjk1OSAzNjguNDU0IDUyMS43MzcgMzY3LjUxMiA1MjEuNzM3SDMzNy4xMDhDMzM2LjE2NiA1MjEuNzM3IDMzNS40MDIgNTIwLjk1OSAzMzUuNDAyIDUxOS45OThaIiBjbGlwLXJ1bGU9ImV2ZW5vZGQiIGZpbGwtcnVsZT0iZXZlbm9kZCIvPiYjeGE7PHBhdGggZmlsbD0iYmxhY2siIGQ9Ik01MTEuNjI1IDU1MC4xNzVDNTEwLjY3NCA1NTAuMTc1IDUwOS45MDMgNTQ5LjM5NyA1MDkuOTAzIDU0OC40MzZWNTMxLjIzM0M1MDkuOTAzIDUzMC4yNzIgNTA5LjEzMiA1MjkuNDkzIDUwOC4xODEgNTI5LjQ5M0g0NzcuNDQxQzQ3Ni40OSA1MjkuNDkzIDQ3NS43MTkgNTMwLjI3MiA0NzUuNzE5IDUzMS4yMzNWNTQ4LjQzNkM0NzUuNzE5IDU0OS4zOTcgNDc0Ljk0OSA1NTAuMTc1IDQ3My45OTggNTUwLjE3NUg0NjcuMTg2QzQ2Ni4yMzUgNTUwLjE3NSA0NjUuNDY0IDU0OS4zOTcgNDY1LjQ2NCA1NDguNDM2VjUwNy4wOTJMNDY1LjQ2NCA1MDcuMDkxTDQ2NS40NjUgNTA3LjA4OUM0NjUuNDY2IDUwNy4wODggNDY1LjQ2NyA1MDcuMDg4IDQ2NS40NjkgNTA3LjA4OEM0NjUuNDcxIDUwNy4wODggNDY1LjQ3MyA1MDcuMDg1IDQ2NS40NzMgNTA3LjA4M0M0NjUuNDY3IDUwNi45NDIgNDY1LjQ2NCA1MDYuOCA0NjUuNDY0IDUwNi42NTdDNDY1LjQ2NCA1MDEuMTg0IDQ2OS44NjQgNDk2Ljc0NyA0NzUuMjkyIDQ5Ni43NDdDNDc1LjQzNCA0OTYuNzQ3IDQ3NS41NzUgNDk2Ljc1IDQ3NS43MTUgNDk2Ljc1NkM0NzUuNzE3IDQ5Ni43NTYgNDc1LjcxOSA0OTYuNzU0IDQ3NS43MTkgNDk2Ljc1MUM0NzUuNzE5IDQ5Ni43NDkgNDc1LjcyMSA0OTYuNzQ3IDQ3NS43MjQgNDk2Ljc0N0w1MTAuNzUzIDQ5Ni43NDdDNTEwLjc1NiA0OTYuNzQ3IDUxMC43NTggNDk2Ljc0OSA1MTAuNzU4IDQ5Ni43NTFDNTEwLjc1OCA0OTYuNzU0IDUxMC43NiA0OTYuNzU2IDUxMC43NjIgNDk2Ljc1NkM1MTUuOTkgNDk2Ljk4NCA1MjAuMTU4IDUwMS4zMjkgNTIwLjE1OCA1MDYuNjU3QzUyMC4xNTggNTA2LjggNTIwLjE1NSA1MDYuOTQyIDUyMC4xNDkgNTA3LjA4M0M1MjAuMTQ5IDUwNy4wODUgNTIwLjE1MSA1MDcuMDg4IDUyMC4xNTQgNTA3LjA4OEM1MjAuMTU1IDUwNy4wODggNTIwLjE1NiA1MDcuMDg4IDUyMC4xNTcgNTA3LjA4OUM1MjAuMTU4IDUwNy4wOSA1MjAuMTU4IDUwNy4wOTEgNTIwLjE1OCA1MDcuMDkyVjU0OC40MzZDNTIwLjE1OCA1NDkuMzk3IDUxOS4zODggNTUwLjE3NSA1MTguNDM3IDU1MC4xNzVINTExLjYyNVpNNDc1LjcxOSA1MTEuMzk2VjUxOS45OThDNDc1LjcxOSA1MjAuOTU5IDQ3Ni40OSA1MjEuNzM3IDQ3Ny40NDEgNTIxLjczN0g1MDguMTgxQzUwOS4xMzIgNTIxLjczNyA1MDkuOTAzIDUyMC45NTkgNTA5LjkwMyA1MTkuOTk4VjUxMS4zOTZDNTA5LjkwMyA1MDguMDY1IDUwNy4yMjUgNTA1LjM2NCA1MDMuOTIxIDUwNS4zNjRINDgxLjcwMkM0NzguMzk4IDUwNS4zNjQgNDc1LjcxOSA1MDguMDY1IDQ3NS43MTkgNTExLjM5NloiIGNsaXAtcnVsZT0iZXZlbm9kZCIgZmlsbC1ydWxlPSJldmVub2RkIi8+JiN4YTs8cGF0aCBmaWxsPSJibGFjayIgZD0iTTQwNC43NjggNDk2Ljc0N0M0MDUuMjY4IDQ5Ni43NDcgNDA1Ljc0MiA0OTYuOTcgNDA2LjA2NiA0OTcuMzU3TDQzNi4zMjMgNTMzLjY1MUM0MzcuMzUyIDUzNC44ODEgNDM5LjMyNiA1MzQuMTM5IDQzOS4zMjYgNTMyLjUyMlY0OTguNDg2QzQzOS4zMjYgNDk3LjUyNSA0NDAuMDg5IDQ5Ni43NDcgNDQxLjAzMSA0OTYuNzQ3SDQ0Ny43NzhDNDQ4LjcyIDQ5Ni43NDcgNDQ5LjQ4MyA0OTcuNTI1IDQ0OS40ODMgNDk4LjQ4NlY1NDguNDM2QzQ0OS40ODMgNTQ5LjM5NyA0NDguNzIgNTUwLjE3NSA0NDcuNzc4IDU1MC4xNzVINDM5LjM5QzQzOS4zNTQgNTUwLjE3NSA0MzkuMzI2IDU1MC4xNDYgNDM5LjMyNiA1NTAuMTFDNDM5LjMyNiA1NTAuMDk1IDQzOS4zMiA1NTAuMDc5IDQzOS4zMSA1NTAuMDY4TDQwOC41NDYgNTE0LjAyOEM0MDcuNTA5IDUxMi44MTcgNDA1LjU1NSA1MTMuNTY1IDQwNS41NTUgNTE1LjE3MlY1NDguNDM2QzQwNS41NTUgNTQ5LjM5NyA0MDQuNzkyIDU1MC4xNzUgNDAzLjg1IDU1MC4xNzVIMzk3LjA2QzM5Ni4xMTggNTUwLjE3NSAzOTUuMzU1IDU0OS4zOTcgMzk1LjM1NSA1NDguNDM2VjQ5OC40ODZDMzk1LjM1NSA0OTcuNTI1IDM5Ni4xMTggNDk2Ljc0NyAzOTcuMDYgNDk2Ljc0N0g0MDQuNzY4WiIvPiYjeGE7PGRlZnM+JiN4YTs8bGluZWFyR3JhZGllbnQgZ3JhZGllbnRVbml0cz0idXNlclNwYWNlT25Vc2UiIHkyPSI0MjguMDgzIiB4Mj0iMTcxLjg1NCIgeTE9IjcuMzM0MTYiIHgxPSIzOTEuNTIiIGlkPSJwYWludDBfbGluZWFyIj4mI3hhOzxzdG9wIHN0b3AtY29sb3I9IiMwMEZGQTMiLz4mI3hhOzxzdG9wIHN0b3AtY29sb3I9IiNEQzFGRkYiIG9mZnNldD0iMSIvPiYjeGE7PC9saW5lYXJHcmFkaWVudD4mI3hhOzxsaW5lYXJHcmFkaWVudCBncmFkaWVudFVuaXRzPSJ1c2VyU3BhY2VPblVzZSIgeTI9IjQyOC4wODMiIHgyPSIxNzEuODU0IiB5MT0iNy4zMzQxNiIgeDE9IjM5MS41MiIgaWQ9InBhaW50MV9saW5lYXIiPiYjeGE7PHN0b3Agc3RvcC1jb2xvcj0iIzAwRkZBMyIvPiYjeGE7PHN0b3Agc3RvcC1jb2xvcj0iI0RDMUZGRiIgb2Zmc2V0PSIxIi8+JiN4YTs8L2xpbmVhckdyYWRpZW50PiYjeGE7PGxpbmVhckdyYWRpZW50IGdyYWRpZW50VW5pdHM9InVzZXJTcGFjZU9uVXNlIiB5Mj0iNDI4LjA4MyIgeDI9IjE3MS44NTQiIHkxPSI3LjMzNDE2IiB4MT0iMzkxLjUyIiBpZD0icGFpbnQyX2xpbmVhciI+JiN4YTs8c3RvcCBzdG9wLWNvbG9yPSIjMDBGRkEzIi8+JiN4YTs8c3RvcCBzdG9wLWNvbG9yPSIjREMxRkZGIiBvZmZzZXQ9IjEiLz4mI3hhOzwvbGluZWFyR3JhZGllbnQ+JiN4YTs8L2RlZnM+JiN4YTs8L3N2Zz4=;" vertex="1" parent="1">
          <mxGeometry x="321" y="-263" width="88" height="88" as="geometry" />
        </mxCell>
        <mxCell id="PkCYD1a_8axo3H1CK_oy-27" value="執行＆確認交易" style="text;strokeColor=none;fillColor=none;html=1;align=center;verticalAlign=middle;whiteSpace=wrap;rounded=0;fontSize=20;fontFamily=Architects Daughter;fontSource=https%3A%2F%2Ffonts.googleapis.com%2Fcss%3Ffamily%3DArchitects%2BDaughter;" vertex="1" parent="1">
          <mxGeometry x="128" y="-214" width="191" height="30" as="geometry" />
        </mxCell>
        <mxCell id="PkCYD1a_8axo3H1CK_oy-28" value="" style="group" vertex="1" connectable="0" parent="1">
          <mxGeometry x="-968" y="-255" width="126" height="112" as="geometry" />
        </mxCell>
        <mxCell id="PkCYD1a_8axo3H1CK_oy-8" value="" style="fontColor=#0066CC;verticalAlign=top;verticalLabelPosition=bottom;labelPosition=center;align=center;html=1;outlineConnect=0;fillColor=#CCCCCC;strokeColor=#6881B3;gradientColor=none;gradientDirection=north;strokeWidth=2;shape=mxgraph.networks.pc;sketch=1;hachureGap=4;jiggle=2;curveFitting=1;fontFamily=Architects Daughter;fontSource=https%3A%2F%2Ffonts.googleapis.com%2Fcss%3Ffamily%3DArchitects%2BDaughter;" vertex="1" parent="PkCYD1a_8axo3H1CK_oy-28">
          <mxGeometry width="121" height="78" as="geometry" />
        </mxCell>
        <mxCell id="PkCYD1a_8axo3H1CK_oy-9" value="商家網站" style="text;strokeColor=none;fillColor=none;html=1;align=center;verticalAlign=middle;whiteSpace=wrap;rounded=0;fontSize=20;fontFamily=Architects Daughter;fontSource=https%3A%2F%2Ffonts.googleapis.com%2Fcss%3Ffamily%3DArchitects%2BDaughter;" vertex="1" parent="PkCYD1a_8axo3H1CK_oy-28">
          <mxGeometry x="13" y="82" width="113" height="30" as="geometry" />
        </mxCell>
        <mxCell id="PkCYD1a_8axo3H1CK_oy-29" value="" style="group" vertex="1" connectable="0" parent="1">
          <mxGeometry x="60" y="-250" width="60" height="88" as="geometry" />
        </mxCell>
        <mxCell id="PkCYD1a_8axo3H1CK_oy-17" value="" style="image;aspect=fixed;perimeter=ellipsePerimeter;html=1;align=center;shadow=0;dashed=0;fontColor=#4277BB;labelBackgroundColor=default;fontSize=12;spacingTop=3;image=img/lib/ibm/blockchain/wallet.svg;sketch=1;hachureGap=4;jiggle=2;curveFitting=1;fontFamily=Architects Daughter;fontSource=https%3A%2F%2Ffonts.googleapis.com%2Fcss%3Ffamily%3DArchitects%2BDaughter;" vertex="1" parent="PkCYD1a_8axo3H1CK_oy-29">
          <mxGeometry width="60" height="60" as="geometry" />
        </mxCell>
        <mxCell id="PkCYD1a_8axo3H1CK_oy-22" value="wallet" style="text;strokeColor=none;fillColor=none;html=1;align=center;verticalAlign=middle;whiteSpace=wrap;rounded=0;fontSize=20;fontFamily=Architects Daughter;fontSource=https%3A%2F%2Ffonts.googleapis.com%2Fcss%3Ffamily%3DArchitects%2BDaughter;" vertex="1" parent="PkCYD1a_8axo3H1CK_oy-29">
          <mxGeometry y="58" width="60" height="30" as="geometry" />
        </mxCell>
        <mxCell id="PkCYD1a_8axo3H1CK_oy-30" style="edgeStyle=none;curved=1;rounded=0;sketch=1;hachureGap=4;jiggle=2;curveFitting=1;orthogonalLoop=1;jettySize=auto;html=1;entryX=0.5;entryY=1;entryDx=0;entryDy=0;fontFamily=Architects Daughter;fontSource=https%3A%2F%2Ffonts.googleapis.com%2Fcss%3Ffamily%3DArchitects%2BDaughter;fontSize=16;startSize=14;endArrow=open;endSize=14;sourcePerimeterSpacing=8;targetPerimeterSpacing=8;" edge="1" parent="1" source="PkCYD1a_8axo3H1CK_oy-9" target="PkCYD1a_8axo3H1CK_oy-24">
          <mxGeometry relative="1" as="geometry">
            <Array as="points">
              <mxPoint x="-259" y="-43" />
            </Array>
          </mxGeometry>
        </mxCell>
        <mxCell id="PkCYD1a_8axo3H1CK_oy-31" value="尋找交易紀錄＆確認付款成功" style="text;strokeColor=none;fillColor=none;html=1;align=center;verticalAlign=middle;whiteSpace=wrap;rounded=0;fontSize=20;fontFamily=Architects Daughter;fontSource=https%3A%2F%2Ffonts.googleapis.com%2Fcss%3Ffamily%3DArchitects%2BDaughter;" vertex="1" parent="1">
          <mxGeometry x="-473" y="-98" width="344" height="30" as="geometry" />
        </mxCell>
      </root>
    </mxGraphModel>
  </diagram>
</mxfile>
